<svg width="262" height="63" viewBox="0 0 262 63" fill="none" xmlns="http://www.w3.org/2000/svg">
<g clip-path="url(#clip0_3_22)">
<path d="M255.02 16.3229H260.997L247.244 32.0665L261.638 48.4527H255.791L243.839 35.0866L240.112 39.4562V48.4527H235.356V3.47113H240.112V33.8658L255.02 16.3229Z" fill="white"/>
<path d="M223.873 3.47113H228.563V48.4527H223.873V3.47113Z" fill="white"/>
<path d="M217.018 39.2618C217.018 43.1602 217.318 46.2231 217.919 48.4509H213.099C212.671 46.7373 212.413 44.7879 212.328 42.6032C211.128 44.5737 209.522 46.1589 207.508 47.3584C205.539 48.5578 203.31 49.1578 200.825 49.1578C197.742 49.1578 195.191 48.2578 193.18 46.4589C191.209 44.6595 190.223 42.3675 190.223 39.5831C190.223 36.9698 191.036 34.8922 192.664 33.3499C194.292 31.8077 196.564 30.9509 199.476 30.7796L208.473 30.1369C209.843 30.0512 210.806 29.7728 211.365 29.3016C211.964 28.7874 212.264 27.995 212.264 26.924V26.7955C212.264 24.782 211.472 23.1114 209.886 21.7832C208.301 20.4124 206.374 19.7269 204.103 19.7269C198.876 19.7269 195.984 21.9761 195.428 26.4741H190.48C190.695 23.1756 192.023 20.5409 194.465 18.5703C196.95 16.5997 200.139 15.6143 204.039 15.6143C206.523 15.6143 208.729 16.1285 210.657 17.1566C212.628 18.142 214.171 19.5128 215.284 21.2693C216.441 22.9827 217.018 24.932 217.018 27.1168V39.2618ZM195.042 39.3259C195.042 41.0396 195.686 42.4104 196.971 43.4385C198.298 44.4237 200.054 44.9163 202.24 44.9163C204.167 44.9163 205.88 44.4668 207.38 43.567C208.88 42.6676 210.058 41.4466 210.915 39.9043C211.815 38.3621 212.264 36.6056 212.264 34.635V33.6712L201.083 34.378C197.056 34.678 195.042 36.3273 195.042 39.3259Z" fill="white"/>
<path d="M195.135 6.68478V11.1828H182.606V48.4531H177.85V11.1828H165.32V6.68478H195.135Z" fill="white"/>
<path d="M136.981 16.3223H142.186L152.338 43.1184L162.235 16.3223H167.504L154.909 48.4518H149.575L136.981 16.3223Z" fill="white"/>
<path d="M107.138 32.2575C107.138 27.1596 108.487 23.1329 111.185 20.1769C113.885 17.1781 117.526 15.6786 122.11 15.6786C125.023 15.6786 127.593 16.3642 129.821 17.735C132.091 19.1059 133.869 20.9907 135.154 23.3899C136.44 25.7888 137.082 28.5306 137.082 31.6151V33.607H112.085C112.257 37.2483 113.221 40.0116 114.977 41.8964C116.776 43.7814 119.282 44.7236 122.495 44.7236C125.108 44.7236 127.186 44.1457 128.728 42.9888C130.314 41.8322 131.299 40.2686 131.684 38.298H136.697C136.011 41.725 134.469 44.3595 132.07 46.202C129.714 48.0441 126.522 48.9651 122.495 48.9651C119.368 48.9651 116.648 48.3009 114.334 46.973C112.021 45.602 110.243 43.6744 109.001 41.1896C107.759 38.6621 107.138 35.6847 107.138 32.2575ZM122.11 19.7271C116.112 19.7271 112.792 23.0686 112.15 29.7514H132.006C131.749 26.7098 130.72 24.2895 128.921 22.4902C127.165 20.6481 124.894 19.7271 122.11 19.7271Z" fill="white"/>
<path d="M86.6332 6.68478C90.2747 6.68478 93.4447 7.58445 96.1436 9.38373C98.8851 11.1829 101.006 13.7105 102.505 16.9663C104.005 20.222 104.754 24.0133 104.754 28.34C104.754 32.367 104.047 35.9013 102.634 38.9429C101.263 41.9417 99.3136 44.2763 96.7862 45.9473C94.2584 47.6178 91.3026 48.4531 87.9184 48.4531H71.0824V6.68478H86.6332ZM75.8376 11.0544V44.0837H87.2758C91.26 44.0837 94.3442 42.7127 96.5289 39.9711C98.7567 37.2293 99.8704 33.3523 99.8704 28.34C99.8704 22.8566 98.6494 18.6156 96.2078 15.6168C93.8089 12.5752 90.4031 11.0544 85.9906 11.0544H75.8376Z" fill="white"/>
<path d="M14.9077 31.0992V12.3597C14.9077 12.1463 15.0847 11.9734 15.3029 11.9734H35.6634C37.4015 11.9734 38.8104 13.3504 38.8104 15.049V38.0964C38.8104 39.7951 37.4015 41.1719 35.6634 41.1719H15.3029C15.0847 41.1719 14.9077 40.999 14.9077 40.7857V37.3399C14.9077 37.1268 15.0847 36.9537 15.3029 36.9537H32.5181C33.3832 36.9537 34.0846 36.2682 34.0846 35.4226V17.9204C34.0846 17.075 33.3832 16.3895 32.5181 16.3895H20.1657C19.9473 16.3895 19.7704 16.5624 19.7704 16.7758V29.4248C19.7704 29.5803 19.675 29.7206 19.5283 29.7808L15.4562 31.4552C15.1957 31.5624 14.9077 31.3753 14.9077 31.0992Z" fill="white"/>
<path fill-rule="evenodd" clip-rule="evenodd" d="M0.39847 0C0.178304 0 0 0.174231 0 0.389358V53.9631C0 54.1782 0.178304 54.3524 0.39847 54.3524H26.7206C26.7728 54.3524 26.8243 54.3625 26.8726 54.3818L45.7459 61.9885C46.008 62.0946 46.2961 61.9059 46.2961 61.6287V54.7416C46.2961 54.527 46.4747 54.3524 46.6946 54.3524H51.9297C52.1496 54.3524 52.3282 54.1782 52.3282 53.9631V0.389358C52.3282 0.174231 52.1496 0 51.9297 0H0.39847ZM27.8037 49.7885C27.7556 49.7691 27.7038 49.7595 27.6519 49.7595H5.09849C4.87852 49.7595 4.70003 49.5849 4.70003 49.3698V4.98241C4.70003 4.76746 4.87852 4.59324 5.09849 4.59324H47.2295C47.4494 4.59324 47.628 4.76746 47.628 4.98241V49.3698C47.628 49.5849 47.4494 49.7595 47.2295 49.7595H41.9945C41.7744 49.7595 41.5962 49.9337 41.5962 50.1483V54.7658C41.5962 55.0429 41.3082 55.2316 41.0457 55.126L27.8037 49.7885Z" fill="white"/>
</g>
<defs>
<clipPath id="clip0_3_22">
<rect width="261.709" height="62.0184" fill="white"/>
</clipPath>
</defs>
</svg>
