<svg width="805" height="295" viewBox="0 0 805 295" fill="none" xmlns="http://www.w3.org/2000/svg">
<path d="M0 0H805V295H0V0Z" fill="#EE6F00"/>
<path d="M222.631 128V71.36H204.871V57.92H254.791V71.36H237.031V128H222.631Z" fill="#09001C"/>
<path d="M266.274 128V57.92H309.474V70.208H280.386V85.952H306.114V98.24H280.386V115.712H309.474V128H266.274Z" fill="#09001C"/>
<path d="M345.34 128.96C340.668 128.96 336.572 128.096 333.052 126.368C329.532 124.576 326.78 122.112 324.796 118.976C322.876 115.776 321.916 112.064 321.916 107.84V78.08C321.916 73.792 322.876 70.08 324.796 66.944C326.78 63.808 329.532 61.376 333.052 59.648C336.572 57.856 340.668 56.96 345.34 56.96C350.076 56.96 354.172 57.856 357.628 59.648C361.148 61.376 363.868 63.808 365.788 66.944C367.772 70.08 368.764 73.792 368.764 78.08H354.364C354.364 75.264 353.564 73.12 351.964 71.648C350.428 70.176 348.22 69.44 345.34 69.44C342.46 69.44 340.22 70.176 338.62 71.648C337.084 73.12 336.316 75.264 336.316 78.08V107.84C336.316 110.592 337.084 112.736 338.62 114.272C340.22 115.744 342.46 116.48 345.34 116.48C348.22 116.48 350.428 115.744 351.964 114.272C353.564 112.736 354.364 110.592 354.364 107.84H368.764C368.764 112.064 367.772 115.776 365.788 118.976C363.868 122.112 361.148 124.576 357.628 126.368C354.172 128.096 350.076 128.96 345.34 128.96Z" fill="#09001C"/>
<path d="M380.055 128V57.92H394.455V84.8H410.583V57.92H424.983V128H410.583V98.24H394.455V128H380.055Z" fill="#09001C"/>
<path d="M496.524 128V115.52H510.444V70.4H496.524V57.92H538.764V70.4H524.844V115.52H538.764V128H496.524Z" fill="#09001C"/>
<path d="M552.166 128V57.92H568.966L587.11 112.16C586.918 109.792 586.694 107.072 586.438 104C586.182 100.864 585.958 97.76 585.766 94.688C585.638 91.552 585.574 88.896 585.574 86.72V57.92H598.246V128H581.446L563.494 73.76C563.686 75.808 563.878 78.24 564.07 81.056C564.262 83.872 564.422 86.72 564.55 89.6C564.742 92.48 564.838 95.04 564.838 97.28V128H552.166Z" fill="#09001C"/>
<path d="M62.8449 238V166H92.4129L111.229 212.176L130.045 166H159.613V238H136.861V192.88L119.389 238H103.165L85.5969 192.784V238H62.8449Z" fill="#09001C"/>
<path d="M192.516 238H166.788L202.596 166H231.204L267.204 238H240.036L233.412 223.024H199.14L192.516 238ZM205.188 209.392H227.364L216.324 184.336L205.188 209.392Z" fill="#09001C"/>
<path d="M274.157 238V166H297.677V220.048H342.797V238H274.157Z" fill="#09001C"/>
<path d="M372.422 238H346.694L382.502 166H411.11L447.11 238H419.942L413.318 223.024H379.046L372.422 238ZM385.094 209.392H407.27L396.23 184.336L385.094 209.392Z" fill="#09001C"/>
<path d="M458.537 166L477.737 195.28L496.745 166H523.721L490.217 212.656V238H464.009V212.656L430.313 166H458.537Z" fill="#09001C"/>
<path d="M527.461 185.488C527.557 170.608 540.517 163.6 566.149 163.6C581.029 163.6 592.645 165.712 601.765 167.92L602.629 185.584C591.877 182.128 580.357 180.112 568.549 180.112C556.645 180.112 552.229 182.224 552.229 185.872C552.229 197.968 606.565 184.336 606.565 215.92C606.565 231.856 592.837 240.208 568.453 240.208C553.285 240.208 539.941 237.136 528.325 232.336L527.365 213.52C538.597 219.28 551.461 222.64 565.573 222.64C576.901 222.64 581.509 220.24 581.509 216.4C581.509 203.632 527.365 216.976 527.461 185.488Z" fill="#09001C"/>
<path d="M616.157 238V166H639.677V238H616.157Z" fill="#09001C"/>
<path d="M672.61 238H646.882L682.69 166H711.298L747.298 238H720.13L713.506 223.024H679.234L672.61 238ZM685.282 209.392H707.458L696.418 184.336L685.282 209.392Z" fill="#09001C"/>
</svg>
