<svg width="735" height="248" viewBox="0 0 735 248" fill="none" xmlns="http://www.w3.org/2000/svg">
<path d="M0 0H735V248H0V0Z" fill="url(#paint0_linear_18_28)"/>
<path d="M92.5795 185V75.92H110.579V185H92.5795ZM54.2395 79.34V62.42H150.719V79.34H54.2395Z" fill="white"/>
<path d="M187.185 186.8C178.665 186.8 171.165 184.94 164.685 181.22C158.205 177.38 153.165 172.04 149.565 165.2C145.965 158.36 144.165 150.38 144.165 141.26C144.165 132.02 145.965 123.98 149.565 117.14C153.165 110.3 158.205 104.96 164.685 101.12C171.165 97.28 178.665 95.36 187.185 95.36C195.825 95.36 203.385 97.28 209.865 101.12C216.345 104.96 221.385 110.3 224.985 117.14C228.585 123.98 230.385 132.02 230.385 141.26C230.385 142.1 230.325 143 230.205 143.96C230.205 144.8 230.145 145.58 230.025 146.3H161.265V130.82H217.065L212.025 141.26C212.025 132.14 209.985 124.64 205.905 118.76C201.825 112.88 195.585 109.94 187.185 109.94C179.745 109.94 173.805 112.34 169.365 117.14C164.925 121.82 162.705 128 162.705 135.68V145.04C162.705 153.08 164.865 159.5 169.185 164.3C173.505 168.98 179.505 171.32 187.185 171.32C194.265 171.32 199.725 169.82 203.565 166.82C207.405 163.82 210.765 160.1 213.645 155.66L227.145 164.12C223.065 171.68 217.785 177.38 211.305 181.22C204.945 184.94 196.905 186.8 187.185 186.8Z" fill="white"/>
<path d="M285.999 186.8C276.999 186.8 269.199 184.88 262.599 181.04C255.999 177.08 250.899 171.68 247.299 164.84C243.699 158 241.899 150.08 241.899 141.08C241.899 132.08 243.699 124.16 247.299 117.32C250.899 110.48 255.999 105.14 262.599 101.3C269.199 97.34 276.999 95.36 285.999 95.36C294.519 95.36 302.259 97.7 309.219 102.38C316.179 106.94 321.219 113.06 324.339 120.74L307.239 127.94C305.319 122.9 302.439 119.12 298.599 116.6C294.759 113.96 290.379 112.64 285.459 112.64C278.259 112.64 272.259 115.16 267.459 120.2C262.659 125.12 260.259 132.08 260.259 141.08C260.259 150.08 262.659 157.1 267.459 162.14C272.259 167.06 278.259 169.52 285.459 169.52C290.379 169.52 294.759 168.26 298.599 165.74C302.439 163.1 305.319 159.26 307.239 154.22L324.339 161.42C321.099 169.1 315.999 175.28 309.039 179.96C302.199 184.52 294.519 186.8 285.999 186.8Z" fill="white"/>
<path d="M338.881 185V62.42H356.881V185H338.881ZM397.741 185V128.84C397.741 122.6 396.301 118.4 393.421 116.24C390.661 114.08 387.361 113 383.521 113C379.681 113 375.781 113.78 371.821 115.34C367.861 116.9 364.321 119 361.201 121.64C358.081 124.28 355.681 127.22 354.001 130.46L351.841 113.18C355.201 109.34 358.861 106.1 362.821 103.46C366.781 100.82 370.981 98.84 375.421 97.52C379.861 96.08 384.421 95.36 389.101 95.36C395.341 95.36 400.261 96.44 403.861 98.6C407.461 100.64 410.101 103.46 411.781 107.06C413.461 110.54 414.541 114.5 415.021 118.94C415.501 123.38 415.741 127.94 415.741 132.62V185H397.741Z" fill="white"/>
<path d="M431.182 185L453.142 62.42H474.202L504.982 148.1H504.262L535.042 62.42H556.102L578.062 185H554.122L545.302 129.02C543.982 121.46 542.842 113.9 541.882 106.34C541.042 98.66 540.382 91.04 539.902 83.48H546.382C544.342 92 542.302 99.86 540.262 107.06C538.342 114.14 536.062 121.4 533.422 128.84L513.802 183.38H495.442L475.822 128.84C473.182 121.4 470.842 114.14 468.802 107.06C466.762 99.86 464.782 92 462.862 83.48H469.162C468.802 91.04 468.142 98.66 467.182 106.34C466.342 113.9 465.262 121.46 463.942 129.02L455.122 185H431.182Z" fill="white"/>
<path d="M634.429 128.84H622.189L655.669 62.42H681.409L637.849 145.76L640.009 130.64V185H616.429V130.64L618.229 145.76L575.029 62.42H601.129L634.429 128.84Z" fill="white"/>
<defs>
<linearGradient id="paint0_linear_18_28" x1="793.8" y1="122.347" x2="58.7996" y2="122.347" gradientUnits="userSpaceOnUse">
<stop stop-color="#B65603"/>
<stop offset="1" stop-color="#EE6F00" stop-opacity="0"/>
</linearGradient>
</defs>
</svg>
